<svg width="178" height="46" viewBox="0 0 178 46" fill="none" xmlns="http://www.w3.org/2000/svg">
<path d="M49.6839 17.3997C49.0727 17.3799 48.4813 17.527 47.8927 17.6289C44.8336 18.1581 41.7632 18.6278 38.7438 19.3664C38.2599 19.4853 38.0618 19.706 37.9599 20.2097C37.2157 23.9196 36.8535 27.6578 37.0176 31.4413C37.1364 34.1353 37.5553 36.7897 38.0759 39.43C38.3278 40.7034 37.3657 41.991 36.1036 42.0476C35.4301 42.0787 35.1754 41.9259 34.9292 41.2609C34.499 40.112 34.3179 38.9036 34.1198 37.7009C33.6756 34.9843 33.5029 32.2507 33.6699 29.4972C33.6756 29.4123 34.3943 22.8641 34.4453 22.4934C34.5471 21.7491 34.7084 21.0106 34.7537 20.2578C34.7707 19.9833 34.683 19.8701 34.3915 19.8843C33.834 19.9126 33.2794 19.8786 32.7445 19.689C32.272 19.5221 31.9012 19.2504 31.8928 18.7014C31.8843 18.1468 32.1814 17.844 32.7219 17.6685C33.4888 17.4223 34.2217 17.0714 34.9829 16.7998C35.3735 16.6611 35.5234 16.4149 35.6083 16.0244C36.0441 14.0463 36.313 12.0343 36.8959 10.0874C37.1478 9.2441 37.459 8.42345 37.9118 7.66222C38.1608 7.24341 38.4438 6.85006 38.8287 6.54444C39.6946 5.86245 40.7077 6.17939 41.0558 7.2236C41.3387 8.06972 41.1237 8.8932 40.9511 9.71668C40.6313 11.2363 39.9663 12.6342 39.3777 14.0605C39.1711 14.5585 38.9872 15.0622 38.8626 15.5886C38.7806 15.9282 38.8457 16.0923 39.2588 16.0018C42.9291 15.1896 46.6645 14.8217 50.3829 14.3321C51.3818 14.202 52.3921 14.2586 53.3684 14.584C54.1155 14.833 54.7975 15.1839 54.9135 16.0499C55.0352 16.9413 54.5003 17.5129 53.8325 18.0109C49.5736 21.1804 46.2485 25.1563 43.6819 29.7831C43.4809 30.1453 43.3479 30.5358 43.2546 30.9405C43.1951 31.1951 43.2772 31.2998 43.546 31.3112C44.0101 31.3281 44.4318 31.1895 44.8449 31.0055C46.8032 30.1311 48.4728 28.8294 50.0886 27.4541C51.0734 26.6136 51.9987 25.7137 52.7798 24.6752C53.0401 24.33 53.2524 23.9621 53.425 23.5631C53.9598 22.3491 54.8229 21.4379 56.0369 20.8917C57.1745 20.3823 57.9188 20.7813 58.1791 21.9953C58.2866 22.4962 58.2385 22.9858 58.1678 23.4867C57.9895 24.7459 57.8961 26.0165 57.9725 27.29C58.0433 28.4728 58.5498 29.4972 59.2092 30.4594C59.4214 30.7707 59.6336 31.0848 59.8034 31.4187C60.0553 31.9224 60.1628 32.4601 59.7836 32.944C59.4129 33.4194 58.8724 33.4732 58.3121 33.3883C57.4292 33.2553 56.8208 32.7148 56.3256 32.0243C55.3974 30.7282 54.9616 29.2312 54.5909 27.7088C54.4409 27.089 54.4296 27.0664 53.9768 27.4881C52.7571 28.6285 51.5884 29.8227 50.3405 30.9348C48.2747 32.777 45.9995 34.308 43.3225 35.1286C42.0688 35.5135 40.8605 35.3041 39.7852 34.5372C38.6787 33.7477 38.3165 32.6723 38.7013 31.3734C39.1315 29.9274 39.9097 28.6539 40.7417 27.4201C43.198 23.7838 46.0872 20.5323 49.4547 17.711C49.5453 17.6374 49.6811 17.5893 49.6839 17.3997Z" fill="white"/>
<path d="M158.527 27.3224C158.512 25.0868 158.628 23.0267 158.781 20.9722C159.226 15.0267 160.029 9.13783 161.699 3.39609C161.92 2.63769 162.18 1.89345 162.573 1.20014C163.077 0.311567 163.861 -0.0987597 164.806 0.0200934C165.748 0.136117 166.309 0.670956 166.58 1.71517C166.784 2.4962 166.784 3.18102 166.289 3.94225C165.143 5.70524 164.602 7.73706 164.079 9.74907C162.692 15.0777 161.829 20.4826 161.761 25.998C161.75 26.8611 161.775 27.7214 162.03 28.5562C162.095 28.7741 162.14 29.0655 162.401 29.1052C162.644 29.1419 162.814 28.9212 162.964 28.7429C163.34 28.3015 163.603 27.7921 163.872 27.2827C165.451 24.3029 167.022 21.3203 168.621 18.3489C169.229 17.217 169.973 16.1813 171.213 15.6351C171.295 15.5983 171.377 15.5587 171.459 15.5276C172.314 15.2163 172.613 15.3606 172.885 16.2407C173.233 17.3698 173.253 18.5414 173.295 19.7044C173.378 21.9994 173.355 24.2973 173.641 26.5809C173.895 28.6014 174.283 30.5852 175.392 32.3481C175.789 32.9764 176.287 33.5112 176.923 33.9159C177.577 34.329 177.713 34.7252 177.433 35.4525C177.037 36.4882 176.205 37.1079 175.285 37.6286C175.022 37.7786 174.756 37.6315 174.507 37.5409C173.075 37.0202 172.297 35.8741 171.716 34.5667C170.528 31.8841 169.908 29.057 169.665 26.1423C169.586 25.1943 169.566 24.2435 169.58 23.2927C169.586 22.9616 169.537 22.6503 169.274 22.3673C168.971 22.6984 168.858 23.1144 168.686 23.4936C167.375 26.3829 166.173 29.3259 164.577 32.0793C164.217 32.7019 163.821 33.299 163.349 33.8423C162.426 34.9035 161.006 35.0054 159.956 34.063C159.019 33.2226 158.643 32.1189 158.538 30.9049C158.501 30.4946 158.493 30.0843 158.473 29.6853C155.193 32.7132 151.381 34.7026 147.032 35.6421C145.62 35.9449 144.191 36.0467 142.756 35.727C140.888 35.311 139.779 34.0093 139.674 32.0878C139.536 29.5183 140.37 27.2092 141.632 25.0359C143.081 22.5399 145.192 20.6383 147.453 18.9064C149.327 17.4717 151.299 16.1983 153.549 15.4144C153.852 15.3097 154.171 15.239 154.483 15.1597C155.889 14.7975 156.498 15.505 156.795 16.852C156.984 17.7122 156.679 18.5357 156.234 19.2658C155.688 20.1629 154.245 20.2846 153.376 19.4639C152.909 19.0253 152.575 19.0536 152.089 19.3479C148.554 21.4872 145.733 24.3029 143.82 27.9874C143.545 28.5137 143.33 29.0627 143.192 29.6428C142.94 30.7012 143.279 31.42 144.281 31.8671C145.515 32.4189 146.803 32.3793 148.087 32.1218C150.433 31.6492 152.414 30.4239 154.307 29.0372C155.337 28.2817 156.387 27.5657 157.618 27.1611C157.915 27.0507 158.187 26.9573 158.527 27.3224Z" fill="white"/>
<path d="M119.831 24.5082C119.22 25.6628 118.581 26.7806 117.794 27.8078C115.386 30.9602 112.505 33.5212 108.707 34.8909C107.043 35.4908 105.36 35.57 103.738 34.7381C101.67 33.6741 100.693 31.3847 101.239 28.968C101.76 26.6561 102.968 24.6893 104.389 22.8443C106.817 19.6947 109.998 18.1694 112.448 17.66C114.783 17.1733 118.159 18.1213 119.234 19.573C119.486 19.9097 119.633 20.3172 119.877 20.7785C120.058 19.9267 120.281 19.2023 120.714 18.5571C121.116 17.9543 121.645 17.5298 122.336 17.2865C122.76 17.1365 123.066 17.227 123.321 17.5808C124.022 18.5627 124.257 19.6409 124.087 20.8407C123.705 23.5376 123.793 26.2089 124.69 28.8124C124.902 29.4236 125.163 30.0151 125.545 30.5443C126.159 31.3847 126.781 31.4894 127.594 30.8414C128.757 29.916 129.507 28.6652 130.197 27.3805C131.306 25.3119 131.892 23.0452 132.653 20.8436C133.146 19.4202 133.59 17.977 134.456 16.7177C134.671 16.4036 134.923 16.1234 135.223 15.8942C136.012 15.2971 136.844 15.4386 137.41 16.2479C137.923 16.9808 137.959 17.8128 137.792 18.6278C137.224 21.4152 137.436 24.1998 137.75 26.9843C137.965 28.8916 138.302 30.7791 138.805 32.6355C138.97 33.2383 139.224 33.7844 139.714 34.1891C140.169 34.5655 140.212 35.0494 140.056 35.5587C139.787 36.4388 139.238 37.1151 138.426 37.5481C137.49 38.0462 136.304 37.4887 135.783 36.3058C135.339 35.2984 135.138 34.2174 134.931 33.1449C134.586 31.3508 134.269 29.551 133.935 27.7512C133.907 27.6041 133.932 27.3862 133.746 27.3494C133.57 27.3154 133.466 27.5022 133.389 27.6324C132.801 28.6596 132.232 29.6981 131.637 30.7197C130.902 31.979 130.095 33.1873 128.932 34.107C126.691 35.8842 124.269 35.5842 122.545 33.3033C121.371 31.7498 120.799 29.9415 120.386 28.0738C120.134 26.9079 119.99 25.7222 119.831 24.5082ZM112.944 20.1814C111.424 20.1361 110.182 20.7106 109.095 21.619C106.743 23.5857 105.504 26.1863 104.952 29.1435C104.731 30.3292 105.402 31.3791 106.54 31.8233C107.42 32.1686 108.28 32.0129 109.115 31.6988C111.161 30.9263 112.811 29.5849 114.274 27.9946C115.301 26.8768 116.195 25.6684 116.617 24.18C116.965 22.9518 116.543 21.7378 115.516 20.9851C114.735 20.4078 113.852 20.1559 112.944 20.1814Z" fill="white"/>
<path d="M93.6154 17.6201C93.6154 15.5034 93.6324 13.3867 93.607 11.27C93.5956 10.3022 93.539 9.33436 93.2136 8.40335C93.1287 8.15715 93.0297 8.01566 92.7184 8.05528C90.3328 8.35807 87.9445 8.64388 85.5815 9.10515C85.0722 9.20419 84.5656 9.32021 84.0704 9.48717C82.5112 10.005 80.6123 9.19853 79.9671 7.7638C79.6757 7.11577 79.7719 6.86958 80.4652 6.64036C81.4924 6.29795 82.5678 6.18193 83.6318 6.01779C86.5748 5.55936 89.5207 5.10942 92.4665 4.66513C94.6512 4.33687 96.8443 4.08785 99.0459 3.88976C102.447 3.58697 105.852 3.37756 109.27 3.41435C109.7 3.42 110.133 3.41717 110.558 3.5049C111.299 3.65771 111.596 3.94635 111.678 4.60854C111.769 5.35278 111.463 6.00648 110.855 6.26682C110.173 6.56112 109.437 6.65734 108.704 6.72525C107.111 6.87241 105.512 6.89504 103.913 6.93466C102.278 6.97711 100.645 7.05634 99.0119 7.05917C98.4205 7.05917 98.2366 7.31669 98.1545 7.83172C97.9451 9.14476 97.8376 10.4663 97.7442 11.7878C97.5461 14.6148 97.4895 17.4503 97.4329 20.283C97.3452 24.6636 97.7725 28.9819 99.0487 33.1955C99.3742 34.2681 98.8931 35.1991 97.7866 35.8075C96.7905 36.3565 96.0151 36.2037 95.203 35.2896C94.3371 34.3133 94.0541 33.1305 93.9777 31.8655C93.7003 27.1227 93.3862 22.3771 93.6154 17.6201Z" fill="white"/>
<path d="M70.8075 28.9025C69.9954 29.2336 69.3162 29.6099 68.5663 29.8024C66.2571 30.3938 64.313 29.6665 62.6236 28.1186C60.954 26.5905 59.9211 24.6492 59.1429 22.558C58.7185 21.4147 58.4015 20.2375 58.0789 19.0603C57.9063 18.4377 58.0393 17.9425 58.4808 17.4898C58.8967 17.0596 59.3552 16.6889 59.8787 16.4031C60.8125 15.8966 61.3247 16.0494 61.8002 16.9945C62.2642 17.9142 62.4737 18.9217 62.7849 19.8923C63.4245 21.8958 64.2932 23.7777 65.8581 25.2463C66.8175 26.1462 67.9183 26.6924 69.2879 26.35C70.2812 26.1038 70.9915 25.4529 71.6055 24.6832C72.4715 23.5909 73.0488 22.3316 73.6543 21.0921C74.3392 19.6914 74.9334 18.2397 75.9352 17.0172C76.3399 16.5219 76.8068 16.106 77.4322 15.9164C78.0972 15.7126 78.7735 15.6787 79.2801 16.2503C79.7866 16.8219 79.7413 17.5209 79.4895 18.1831C79.0763 19.2612 78.3632 20.1809 77.7972 21.1799C75.2928 25.617 73.694 30.3683 72.8224 35.3743C72.446 37.5391 72.33 39.7181 72.4856 41.9141C72.5479 42.7941 72.3526 43.6261 71.9196 44.3958C71.631 44.908 71.249 45.3297 70.7198 45.5985C69.6105 46.1645 68.6568 45.7145 68.4107 44.4977C68.2154 43.5214 68.2522 42.5338 68.3456 41.549C68.7333 37.4316 69.6699 33.4189 70.7028 29.4232C70.7339 29.2873 70.7566 29.1487 70.8075 28.9025Z" fill="white"/>
<path fill-rule="evenodd" clip-rule="evenodd" d="M5.57685 36.5534C7.76148 38.3673 32.7263 37.4589 34.2205 30.973C37.8879 15.0523 -17.6759 19.6989 14.2531 9.54544C17.9602 8.3654 26.0224 6.37885 26.4243 10.8868C26.4865 11.3933 27.1147 12.2111 28.2071 12.1064C30.9577 11.8433 30.154 5.06581 25.298 4.5621C17.2471 3.73013 -11.3343 12.6724 4.91184 19.7753C10.7639 22.3335 24.9273 22.6136 29.6078 27.5319C30.9633 28.9553 29.6559 30.6645 27.9354 31.1824C21.5343 33.1151 10.0027 33.0161 7.42756 33.1916C4.73922 33.3755 4.09684 35.2319 5.57685 36.5534Z" fill="white"/>
</svg>
